<svg id="svg3464" xmlns="http://www.w3.org/2000/svg" width="250" height="250" viewBox="0 0 250 250">
  <title>avatar</title>
  <g>
    <polygon points="155.38 148.39 141.05 148.39 133.78 137.61 140.93 126.94 155.38 148.39" style="fill: #ff8d4e"/>
    <polygon points="155.32 101.65 140.99 101.65 133.89 111.28 141.09 121.13 155.32 101.65" style="fill: #92929a"/>
    <polygon points="138.95 124.09 122.53 101.72 108.19 101.72 124.56 124.09 108.14 148.46 122.47 148.46 138.95 124.09" style="fill: #2c233d"/>
    <path d="M53.39,118.91l19.06-17.38H78v46.88H65.64V124.35L53.39,135.54,41.08,124.41v24H28.7V101.54h5.56Z" style="fill: #2c233d"/>
    <path d="M87.06,101.54H99.38v46.88H87.06Z" style="fill: #2c233d"/>
    <path d="M164.48,101.54H176.8v46.88H164.48Z" style="fill: #ff8d4e"/>
    <path d="M184.41,101.54H221.3v12.24H208.88v34.65h-12.3V113.77H184.41Z" style="fill: #ff8d4e"/>
  </g>
</svg>
