<svg id="svg3464" xmlns="http://www.w3.org/2000/svg" width="524" height="180" viewBox="0 0 524 180">
  <title>hashtag</title>
  <g>
    <g>
      <polygon points="286.37 119.82 268.07 119.82 258.8 106.06 267.92 92.43 286.37 119.82" style="fill: #ff8d4e"/>
      <polygon points="286.3 60.14 268 60.14 258.94 72.44 268.13 85.01 286.3 60.14" style="fill: #92929a"/>
      <polygon points="265.4 88.8 244.43 60.23 226.13 60.23 247.02 88.8 226.06 119.91 244.35 119.91 265.4 88.8" style="fill: #2c233d"/>
      <path d="M156.17,82.19,180.51,60h7.1v59.85h-15.8V89.13l-15.64,14.28-15.72-14.2v30.64h-15.8V60h7.1Z" style="fill: #2c233d"/>
      <path d="M199.15,60h15.72v59.85H199.15Z" style="fill: #2c233d"/>
      <path d="M298,60h15.72v59.85H298Z" style="fill: #ff8d4e"/>
      <path d="M323.42,60h47.1V75.62H354.67v44.23H339V75.62H323.42Z" style="fill: #ff8d4e"/>
    </g>
    <path d="M107.81,77l-.95,5a4.08,4.08,0,0,1-1.56,2.71,6.72,6.72,0,0,1-3.81.85H99l-1.62,9.33h4.27A3.05,3.05,0,0,1,104.3,96q.79,1.09.36,3.7l-.63,3.8H96.19l-2.77,15.62H87.73a3.22,3.22,0,0,1-1.56-.4,3.64,3.64,0,0,1-1.23-1.07,4.11,4.11,0,0,1-.69-1.54,4.4,4.4,0,0,1,0-1.86l1.9-10.75H79.62l-1.94,11.35a5.1,5.1,0,0,1-.73,2,4.83,4.83,0,0,1-1.26,1.32,5.06,5.06,0,0,1-1.62.75,7.09,7.09,0,0,1-1.84.24H66.77l2.77-15.62H66.06a3.06,3.06,0,0,1-2.65-1.09q-.79-1.09-.36-3.7l.63-3.79h7l1.62-9.33H64.48l.95-5A4.13,4.13,0,0,1,67,77.88,6.6,6.6,0,0,1,70.81,77H73.5l2.06-11.59a4.48,4.48,0,0,1,1.8-2.91,5.53,5.53,0,0,1,3.34-1h5.61L83.54,77H90.1l2.77-15.54h5.46a4.49,4.49,0,0,1,1.72.32,3.93,3.93,0,0,1,1.3.85,3.13,3.13,0,0,1,.77,1.27,3.24,3.24,0,0,1,.08,1.6L100.14,77ZM89,85.55H82.39l-1.62,9.33h6.56Z" style="fill: #ff8d4e"/>
    <path d="M397.63,119.88l0-39.09c0-.76,0-1.53,0-2.31s.07-1.56.12-2.35L391,81.77a4,4,0,0,1-1.78.84,4.76,4.76,0,0,1-1.66,0,3.91,3.91,0,0,1-1.39-.53,3.06,3.06,0,0,1-.9-.8l-4-5.32,18.56-15.58h10.47l0,59.49Z" style="fill: #2c233d"/>
    <path d="M461.1,60.43v5.31a11.39,11.39,0,0,1-.53,3.82,24.46,24.46,0,0,1-1,2.43l-20.69,43.83a8.54,8.54,0,0,1-2.43,2.94,6.63,6.63,0,0,1-4.19,1.23H423l24.52-48.45H422.09a2.64,2.64,0,0,1-1.08-.22,2.89,2.89,0,0,1-.9-.61,3.26,3.26,0,0,1-.63-.9,2.38,2.38,0,0,1-.25-1V60.43Z" style="fill: #2c233d"/>
  </g>
</svg>
